<svg width="20" height="26" viewBox="0 0 20 26" fill="none" xmlns="http://www.w3.org/2000/svg">
<g id="spring_tree_plant_garden_nature_wood_forest_icon_133298 1" clip-path="url(#clip0_1_64)">
<path id="Vector" d="M17.4121 6.93176C17.5392 6.22881 17.501 5.49627 17.3019 4.81873C17.1028 4.1412 16.7509 3.54631 16.2869 3.10277C15.8229 2.65924 15.2657 2.38515 14.6796 2.31216C14.0936 2.23917 13.5026 2.37027 12.9749 2.6903C12.7781 1.91114 12.3822 1.22952 11.8453 0.745371C11.3083 0.261221 10.6586 0 9.99133 0C9.32405 0 8.67433 0.261221 8.13739 0.745371C7.60046 1.22952 7.20456 1.91114 7.00772 2.6903C6.48004 2.37027 5.88905 2.23917 5.303 2.31216C4.71695 2.38515 4.15975 2.65924 3.69575 3.10277C3.23175 3.54631 2.87988 4.1412 2.68078 4.81873C2.48167 5.49627 2.44346 6.22881 2.57056 6.93176C1.80273 7.1003 1.11434 7.61396 0.640876 8.37164C0.167411 9.12932 -0.0568314 10.0761 0.0122868 11.0257C0.081405 11.9753 0.438877 12.8589 1.01434 13.5026C1.58981 14.1462 2.34158 14.5033 3.12169 14.5036H3.18414C3.34977 15.4954 3.83102 16.3662 4.52202 16.9244C5.21302 17.4826 6.05717 17.6825 6.86876 17.4801C7.68036 17.2777 8.39291 16.6896 8.84967 15.8451C9.30644 15.0007 9.46999 13.969 9.30436 12.9772H10.0538C9.89788 13.9712 10.0715 15.0001 10.5364 15.8377C11.0012 16.6753 11.7193 17.2528 12.5327 17.4434C13.3461 17.6339 14.188 17.4217 14.8734 16.8536C15.5587 16.2855 16.0314 15.4079 16.1873 14.4139C16.5937 14.5265 17.0145 14.5385 17.4247 14.4493C17.835 14.36 18.2265 14.1713 18.5762 13.8942C18.9259 13.6171 19.2266 13.2573 19.4607 12.836C19.6948 12.4147 19.8576 11.9404 19.9393 11.441C20.0211 10.9416 20.0202 10.4273 19.9368 9.92832C19.8533 9.42935 19.689 8.95584 19.4535 8.5357C19.218 8.11556 18.916 7.75727 18.5654 7.48197C18.2148 7.20667 17.8227 7.01992 17.4121 6.93272V6.93176Z" fill="#2A9D8F"/>
<path id="Vector_2" d="M7.95581 25.5076H12.0446L11.4605 10.4901H8.53992L7.95581 25.5076Z" fill="#2A9D8F"/>
</g>
<defs>
<clipPath id="clip0_1_64">
<rect width="20" height="25.5076" fill="white"/>
</clipPath>
</defs>
</svg>
